# xmcd
#
# Track frame offsets:
#  150
#  10652
#  24004
#  39681
#  58208
#  70810
#  91062
#  105989
#  122041
#  137343
#  150545
#  164572
#  179499
#  194501
#  213553
#  228705
#  246182
#  261484
#
# Disc length: 3703 seconds
#
# Revision: 0
# Processed by: cddbd v1.5.2PL0 Copyright (c) Steve Scherf et al.
# Submitted via: Collectorz.com_Music_Collector 6.11
#
DISCID=f70e7512
DTITLE=Various Artist - NfS Country Singles Volume 20
DYEAR=1995
DGENRE=Country
TTITLE0=Col Joye/Judy Stone - Love Is A Rose
TTITLE1=John Williamson - My Oath To Australia
TTITLE2=Jim Haynes - Not missing You
TTITLE3=Jimmy Little - Yorta Yorta Man
TTITLE4=Shanley del - I Don't Wanna Talk About Love
TTITLE5=Rene Diaz - This Boy Won't Change
TTITLE6=The Crosby Sisters - Hey Mister
TTITLE7=Dyna Rae - Preacher In Blue Jeans
TTITLE8=craig giles - His Spurs Are Rusty Now
TTITLE9=Penny Burden - Johnny Take Me Dancing
TTITLE10=Rosemary Rae - Local Dance
TTITLE11=Mitchell Shadlow - Bound To Cry
TTITLE12=Dwayne Elix - She Took The Engineer
TTITLE13=Willie Nelson - I'm Falling In Love Again
TTITLE14=Trisha Yearwood - Thinking About You
TTITLE15=Billy Ray Cyrus - Storm In The Heartland
TTITLE16=Sammy Kershaw - Third Rate Romance
TTITLE17=Kathy Mattea/Jackson Browne - Rock Me On The Water
EXTD=
EXTT0=
EXTT1=
EXTT2=
EXTT3=
EXTT4=
EXTT5=
EXTT6=
EXTT7=
EXTT8=
EXTT9=
EXTT10=
EXTT11=
EXTT12=
EXTT13=
EXTT14=
EXTT15=
EXTT16=
EXTT17=
PLAYORDER=
